# xmcd
#
# Track frame offsets:
#	183
#	12163
#	26948
#	37848
#	51063
#	62258
#	73618
#	83210
#	97435
#	109585
#	121393
#	132013
#	142918
#	152823
#
# Disc length: 2194 seconds
#
# Revision: 1
# Processed by: cddbd v1.5.1PL0 Copyright (c) Steve Scherf et al.
# Submitted via: EasyCDDAExtractor 5.0.7
#
DISCID=b508900e
DTITLE=Tennessee Ernie Ford - The Tennessee Ernie Ford Collection
DYEAR=1957
DGENRE=Country
TTITLE0=Sixteen Tons
TTITLE1=The Cry Of The Wild Goose
TTITLE2=Country Junction
TTITLE3=The Ballad Of Davy Crockett
TTITLE4=Tennessee Local
TTITLE5=Blackberry Boogie
TTITLE6=Hey Good Lookin'
TTITLE7=Mule Train
TTITLE8=Smokey Mountain Morning Blues
TTITLE9=The River Of No Return
TTITLE10=Catfish Boogie
TTITLE11=Milk 'Em In The Morning Blues
TTITLE12=Anticipation Blues
TTITLE13=Shotgun Boogie
EXTD=
EXTT0=
EXTT1=
EXTT2=
EXTT3=
EXTT4=
EXTT5=
EXTT6=
EXTT7=
EXTT8=
EXTT9=
EXTT10=
EXTT11=
EXTT12=
EXTT13=
PLAYORDER=
